<?xml version="1.0" encoding="UTF-8"?>
<svg id="Layer_2" data-name="Layer 2" xmlns="http://www.w3.org/2000/svg" xmlns:xlink="http://www.w3.org/1999/xlink" viewBox="0 0 398.57 398.57">
  <defs>
    <style>
      .cls-1 {
        fill: url(#linear-gradient-2);
      }

      .cls-2 {
        fill: #011731;
      }

      .cls-3 {
        fill: url(#linear-gradient-3);
      }

      .cls-4 {
        fill: url(#linear-gradient);
      }
    </style>
    <linearGradient id="linear-gradient" x1="4.8" y1="330.97" x2="254.4" y2="54.3" gradientUnits="userSpaceOnUse">
      <stop offset="0" stop-color="#011731"/>
      <stop offset=".5" stop-color="#0599a8"/>
      <stop offset="1" stop-color="#75d766"/>
    </linearGradient>
    <linearGradient id="linear-gradient-2" x1="92.89" y1="410.44" x2="342.49" y2="133.78" xlink:href="#linear-gradient"/>
    <linearGradient id="linear-gradient-3" x1="299.47" y1="86.62" x2="325.78" y2="57.44" gradientUnits="userSpaceOnUse">
      <stop offset="0" stop-color="#01a6a9"/>
      <stop offset="1" stop-color="#75d766"/>
    </linearGradient>
  </defs>
  <g id="Layer_1-2" data-name="Layer 1">
    <g>
      <rect class="cls-2" width="398.57" height="398.57" rx="53.14" ry="53.14"/>
      <g>
        <path class="cls-4" d="M283.03,95.47l-69.08,124.86-43.41-58.26c-4.45-5.96-11.56-9.29-18.98-8.91-7.41.39-14.14,4.43-17.95,10.82l-64.2,107.8v-.21c-9.29-18.9-14.51-40.16-14.51-62.63,0-78.58,63.71-142.29,142.29-142.29,32.25,0,61.98,10.73,85.84,28.81Z"/>
        <path class="cls-1" d="M339.46,208.95c0,78.58-63.7,142.28-142.28,142.28-8.54,0-16.9-.76-25.02-2.19-8.12-1.44-16.01-3.57-23.59-6.33-27.66-10.24-57.52-13.69-78.62,15.06l84.82-142.43,44.12,59.19c4.53,6.08,11.77,9.41,19.33,8.91,7.56-.52,14.27-4.79,17.95-11.43l78.95-142.69c15.38,22.73,24.35,50.14,24.35,79.63Z"/>
        <path class="cls-3" d="M343.67,70.41c-3.84.82-7.32,2-10.45,3.56-10.09,4.94-16.48,13.62-19.13,26.01-2.65-12.39-9.04-21.07-19.13-26.01-3.13-1.56-6.61-2.74-10.45-3.56,16.23-3.48,26.1-13.35,29.58-29.6,3.48,16.24,13.34,26.11,29.58,29.6Z"/>
      </g>
    </g>
  </g>
</svg>